<svg width="100" height="97" viewBox="0 0 100 97" fill="none" xmlns="http://www.w3.org/2000/svg">
<g clip-path="url(#clip0_702_26)">
<path fill-rule="evenodd" clip-rule="evenodd" d="M59.994 78.1134L57.4828 67.1426C56.066 67.6356 54.5915 67.9898 53.0535 68.1664L55.5682 79.1384C52.6852 80.6469 50.6953 83.6276 50.6953 87.1085C50.6953 92.092 54.7292 96.1235 59.7233 96.1235C64.7068 96.1235 68.7407 92.0896 68.7407 87.1085C68.7466 82.2167 64.8492 78.257 59.994 78.1134ZM58.7546 82.1211C56.7012 83.2214 55.2197 84.8324 54.2912 86.0809C53.9394 86.5539 53.1886 86.2233 53.3051 85.6455C54.0123 82.1141 56.5176 81.2221 58.4534 81.0856C59.0441 81.0432 59.2771 81.8411 58.7546 82.1211Z" fill="#C7C7C7"/>
<path fill-rule="evenodd" clip-rule="evenodd" d="M90.9841 42.6387C87.1032 42.6387 83.8165 45.1051 82.5409 48.5424L71.3112 47.4339C71.3112 47.4764 71.3145 47.518 71.3177 47.5595C71.3209 47.6007 71.3242 47.6418 71.3242 47.6834C71.3242 49.1473 71.1629 50.577 70.8711 51.9573L82.0961 53.0658C82.7751 57.3727 86.483 60.6747 90.9829 60.6747C95.9664 60.6747 100 56.6408 100 51.6573C100 46.6773 95.9664 42.6387 90.9841 42.6387ZM90.5476 46.1093C88.4942 47.2096 87.0127 48.8206 86.0842 50.0691C85.7324 50.5422 84.9816 50.2115 85.0981 49.6337C85.8053 46.1023 88.3106 45.2103 90.2464 45.0738C90.8371 45.0326 91.0701 45.8293 90.5476 46.1093Z" fill="#C7C7C7"/>
<path fill-rule="evenodd" clip-rule="evenodd" d="M66.9766 47.6846C66.9766 38.6966 59.6901 31.4102 50.7021 31.4102C41.7141 31.4102 34.4277 38.6966 34.4277 47.6846C34.4277 56.6726 41.7141 63.959 50.7021 63.959C59.6901 63.959 66.9766 56.6726 66.9766 47.6846ZM48.0709 38.4673C45.2796 39.963 43.2639 42.1541 42.0012 43.851C41.5223 44.4946 40.5032 44.0451 40.6597 43.259C41.6211 38.4567 45.0278 37.2447 47.6602 37.0588C48.4639 37.0023 48.7804 38.0872 48.0709 38.4673Z" fill="#6562FF"/>
<path fill-rule="evenodd" clip-rule="evenodd" d="M30.5472 52.0391L16.5686 56.7225C14.9553 54.2584 12.1793 52.6251 9.01977 52.6251C4.03507 52.6251 0 56.6613 0 61.6448C0 66.6343 4.03389 70.6705 9.01977 70.6705C14.0009 70.6705 18.0454 66.6343 18.0454 61.6448C18.0454 61.5178 18.0288 61.3968 18.0121 61.2753C18.0014 61.1977 17.9907 61.1198 17.9842 61.04L32.0075 56.3448C31.3744 54.9798 30.872 53.5429 30.5472 52.0391ZM8.54663 56.668C6.4932 57.7683 5.01168 59.3793 4.08323 60.6278C3.73138 61.1008 2.98061 60.7702 3.09711 60.1924C3.80434 56.661 6.30963 55.769 8.24538 55.6325C8.83611 55.5901 9.06911 56.388 8.54663 56.668Z" fill="#C7C7C7"/>
<path fill-rule="evenodd" clip-rule="evenodd" d="M63.106 31.2521L71.189 17.65C71.9845 17.8771 72.8106 18.0419 73.6767 18.0419C78.6708 18.0419 82.707 14.0033 82.707 9.01859C82.707 4.03507 78.6708 0 73.6767 0C68.692 0 64.6569 4.03389 64.6569 9.01859C64.6569 11.4933 65.6548 13.7291 67.2681 15.3613L59.2109 28.9256C60.5948 29.5517 61.901 30.3354 63.106 31.2521ZM68.0063 7.00488C68.7135 3.47346 71.2188 2.58149 73.1546 2.44498C73.7453 2.40262 73.9783 3.20046 73.4558 3.48052C71.4024 4.58078 69.9208 6.19175 68.9924 7.44028C68.6405 7.91333 67.8898 7.58266 68.0063 7.00488Z" fill="#C7C7C7"/>
<path fill-rule="evenodd" clip-rule="evenodd" d="M37.3768 31.9704L31.2942 26.222C32.0026 24.9347 32.4415 23.4778 32.4415 21.9045C32.4415 16.921 28.4053 12.8848 23.4206 12.8848C18.4359 12.8848 14.3926 16.9187 14.3926 21.9045C14.3926 26.8904 18.4347 30.9278 23.4206 30.9278C25.1775 30.9278 26.8037 30.4042 28.1911 29.5357L34.2655 35.2783C35.1822 34.0639 36.2189 32.9518 37.3768 31.9704ZM22.8679 16.6622C20.8145 17.7624 19.333 19.3734 18.4045 20.6219C18.0527 21.095 17.3019 20.7643 17.4184 20.1865C18.1256 16.6551 20.6309 15.7631 22.5667 15.6266C23.1562 15.5843 23.3892 16.3821 22.8679 16.6622Z" fill="#C7C7C7"/>
</g>
<defs>
<clipPath id="clip0_702_26">
<rect width="100" height="97" fill="white"/>
</clipPath>
</defs>
</svg>
